<mxfile host="app.diagrams.net" modified="2022-11-09T02:05:10.203Z" agent="5.0 (Windows NT 10.0; Win64; x64) AppleWebKit/537.36 (KHTML, like Gecko) Chrome/107.0.0.0 Safari/537.36" etag="9spI44bkVZdYXT_eldox" version="20.4.0" type="github">
  <diagram id="djYX_F24ko0P1zn-6vMS" name="第 1 页">
    <mxGraphModel dx="1550" dy="835" grid="1" gridSize="10" guides="1" tooltips="1" connect="1" arrows="1" fold="1" page="1" pageScale="1" pageWidth="827" pageHeight="1169" math="0" shadow="0">
      <root>
        <mxCell id="0" />
        <mxCell id="1" parent="0" />
        <mxCell id="B3IIUdZC-V65bYcTOhMr-1" value="" style="sketch=0;points=[[0,0,0],[0.25,0,0],[0.5,0,0],[0.75,0,0],[1,0,0],[0,1,0],[0.25,1,0],[0.5,1,0],[0.75,1,0],[1,1,0],[0,0.25,0],[0,0.5,0],[0,0.75,0],[1,0.25,0],[1,0.5,0],[1,0.75,0]];outlineConnect=0;fontColor=#232F3E;gradientColor=#4AB29A;gradientDirection=north;fillColor=#116D5B;strokeColor=#ffffff;dashed=0;verticalLabelPosition=bottom;verticalAlign=top;align=center;html=1;fontSize=12;fontStyle=0;aspect=fixed;shape=mxgraph.aws4.resourceIcon;resIcon=mxgraph.aws4.desktop_and_app_streaming;" parent="1" vertex="1">
          <mxGeometry x="50" y="310" width="78" height="78" as="geometry" />
        </mxCell>
        <mxCell id="B3IIUdZC-V65bYcTOhMr-2" value="&lt;b&gt;Client&lt;/b&gt;" style="text;html=1;align=center;verticalAlign=middle;resizable=0;points=[];autosize=1;strokeColor=none;fillColor=none;" parent="1" vertex="1">
          <mxGeometry x="59" y="400" width="60" height="30" as="geometry" />
        </mxCell>
        <mxCell id="B3IIUdZC-V65bYcTOhMr-3" value="AWS Cloud" style="points=[[0,0],[0.25,0],[0.5,0],[0.75,0],[1,0],[1,0.25],[1,0.5],[1,0.75],[1,1],[0.75,1],[0.5,1],[0.25,1],[0,1],[0,0.75],[0,0.5],[0,0.25]];outlineConnect=0;gradientColor=none;html=1;whiteSpace=wrap;fontSize=12;fontStyle=0;container=1;pointerEvents=0;collapsible=0;recursiveResize=0;shape=mxgraph.aws4.group;grIcon=mxgraph.aws4.group_aws_cloud;strokeColor=#232F3E;fillColor=none;verticalAlign=top;align=left;spacingLeft=30;fontColor=#232F3E;dashed=1;" parent="1" vertex="1">
          <mxGeometry x="210" y="170" width="590" height="470" as="geometry" />
        </mxCell>
        <mxCell id="B3IIUdZC-V65bYcTOhMr-4" value="" style="outlineConnect=0;dashed=0;verticalLabelPosition=bottom;verticalAlign=top;align=center;html=1;shape=mxgraph.aws3.elastic_load_balancing;fillColor=#F58534;gradientColor=none;" parent="B3IIUdZC-V65bYcTOhMr-3" vertex="1">
          <mxGeometry x="36.75" y="133.5" width="76.5" height="93" as="geometry" />
        </mxCell>
        <mxCell id="B3IIUdZC-V65bYcTOhMr-5" value="&lt;b&gt;Elastic Load&lt;br&gt;Balancing&lt;/b&gt;" style="text;html=1;align=center;verticalAlign=middle;resizable=0;points=[];autosize=1;strokeColor=none;fillColor=none;" parent="B3IIUdZC-V65bYcTOhMr-3" vertex="1">
          <mxGeometry x="30" y="230" width="90" height="40" as="geometry" />
        </mxCell>
        <mxCell id="B3IIUdZC-V65bYcTOhMr-6" value="" style="sketch=0;aspect=fixed;pointerEvents=1;shadow=0;dashed=0;html=1;strokeColor=none;labelPosition=center;verticalLabelPosition=bottom;verticalAlign=top;align=center;fillColor=#00188D;shape=mxgraph.mscae.enterprise.d" parent="B3IIUdZC-V65bYcTOhMr-3" vertex="1">
          <mxGeometry x="190" y="135.5" width="71.2" height="89" as="geometry" />
        </mxCell>
        <mxCell id="B3IIUdZC-V65bYcTOhMr-8" value="&lt;b&gt;Nginx&lt;/b&gt;" style="text;html=1;align=center;verticalAlign=middle;resizable=0;points=[];autosize=1;strokeColor=none;fillColor=none;" parent="B3IIUdZC-V65bYcTOhMr-3" vertex="1">
          <mxGeometry x="190" y="230" width="60" height="30" as="geometry" />
        </mxCell>
        <mxCell id="B3IIUdZC-V65bYcTOhMr-9" value="" style="aspect=fixed;perimeter=ellipsePerimeter;html=1;align=center;shadow=0;dashed=0;spacingTop=3;image;image=img/lib/active_directory/generic_node.svg;" parent="B3IIUdZC-V65bYcTOhMr-3" vertex="1">
          <mxGeometry x="330" y="135.5" width="90.82" height="89" as="geometry" />
        </mxCell>
        <mxCell id="B3IIUdZC-V65bYcTOhMr-10" value="&lt;b&gt;Node&lt;/b&gt;" style="text;html=1;align=center;verticalAlign=middle;resizable=0;points=[];autosize=1;strokeColor=none;fillColor=none;" parent="B3IIUdZC-V65bYcTOhMr-3" vertex="1">
          <mxGeometry x="350.41" y="230" width="50" height="30" as="geometry" />
        </mxCell>
        <mxCell id="B3IIUdZC-V65bYcTOhMr-12" value="" style="image;html=1;image=img/lib/clip_art/computers/Virtual_Application_128x128.png" parent="B3IIUdZC-V65bYcTOhMr-3" vertex="1">
          <mxGeometry x="490" y="140" width="80" height="80" as="geometry" />
        </mxCell>
        <mxCell id="B3IIUdZC-V65bYcTOhMr-14" value="" style="sketch=0;outlineConnect=0;fontColor=#232F3E;gradientColor=none;fillColor=#2E27AD;strokeColor=none;dashed=0;verticalLabelPosition=bottom;verticalAlign=top;align=center;html=1;fontSize=12;fontStyle=0;aspect=fixed;pointerEvents=1;shape=mxgraph.aws4.rds_instance;" parent="B3IIUdZC-V65bYcTOhMr-3" vertex="1">
          <mxGeometry x="390" y="337" width="78" height="78" as="geometry" />
        </mxCell>
        <mxCell id="B3IIUdZC-V65bYcTOhMr-13" value="&lt;b&gt;Application&lt;/b&gt;" style="text;html=1;align=center;verticalAlign=middle;resizable=0;points=[];autosize=1;strokeColor=none;fillColor=none;" parent="B3IIUdZC-V65bYcTOhMr-3" vertex="1">
          <mxGeometry x="480" y="230" width="90" height="30" as="geometry" />
        </mxCell>
        <mxCell id="B3IIUdZC-V65bYcTOhMr-15" value="" style="sketch=0;outlineConnect=0;fontColor=#232F3E;gradientColor=none;fillColor=#3F8624;strokeColor=none;dashed=0;verticalLabelPosition=bottom;verticalAlign=top;align=center;html=1;fontSize=12;fontStyle=0;aspect=fixed;pointerEvents=1;shape=mxgraph.aws4.bucket_with_objects;" parent="B3IIUdZC-V65bYcTOhMr-3" vertex="1">
          <mxGeometry x="100" y="337" width="75" height="78" as="geometry" />
        </mxCell>
        <mxCell id="B3IIUdZC-V65bYcTOhMr-17" value="" style="edgeStyle=orthogonalEdgeStyle;html=1;endArrow=block;elbow=vertical;startArrow=none;endFill=1;strokeColor=#545B64;rounded=0;" parent="B3IIUdZC-V65bYcTOhMr-3" edge="1">
          <mxGeometry width="100" relative="1" as="geometry">
            <mxPoint x="120" y="179.66" as="sourcePoint" />
            <mxPoint x="180" y="179.66" as="targetPoint" />
          </mxGeometry>
        </mxCell>
        <mxCell id="B3IIUdZC-V65bYcTOhMr-18" value="" style="edgeStyle=orthogonalEdgeStyle;html=1;endArrow=block;elbow=vertical;startArrow=none;endFill=1;strokeColor=#545B64;rounded=0;" parent="B3IIUdZC-V65bYcTOhMr-3" edge="1">
          <mxGeometry width="100" relative="1" as="geometry">
            <mxPoint x="264" y="179.66" as="sourcePoint" />
            <mxPoint x="330" y="179.66" as="targetPoint" />
          </mxGeometry>
        </mxCell>
        <mxCell id="B3IIUdZC-V65bYcTOhMr-19" value="" style="edgeStyle=orthogonalEdgeStyle;html=1;endArrow=block;elbow=vertical;startArrow=none;endFill=1;strokeColor=#545B64;rounded=0;" parent="B3IIUdZC-V65bYcTOhMr-3" edge="1">
          <mxGeometry width="100" relative="1" as="geometry">
            <mxPoint x="434" y="179.66" as="sourcePoint" />
            <mxPoint x="480" y="180" as="targetPoint" />
            <Array as="points">
              <mxPoint x="450" y="180" />
              <mxPoint x="450" y="180" />
            </Array>
          </mxGeometry>
        </mxCell>
        <mxCell id="B3IIUdZC-V65bYcTOhMr-24" value="" style="edgeStyle=orthogonalEdgeStyle;html=1;endArrow=none;elbow=vertical;startArrow=block;startFill=1;strokeColor=#545B64;rounded=0;entryX=0.5;entryY=1;entryDx=0;entryDy=0;entryPerimeter=0;" parent="B3IIUdZC-V65bYcTOhMr-3" target="B3IIUdZC-V65bYcTOhMr-13" edge="1">
          <mxGeometry width="100" relative="1" as="geometry">
            <mxPoint x="470" y="375.65999999999997" as="sourcePoint" />
            <mxPoint x="570" y="375.65999999999997" as="targetPoint" />
            <Array as="points">
              <mxPoint x="525" y="376" />
            </Array>
          </mxGeometry>
        </mxCell>
        <mxCell id="B3IIUdZC-V65bYcTOhMr-25" value="" style="edgeStyle=orthogonalEdgeStyle;html=1;endArrow=none;elbow=vertical;startArrow=block;startFill=1;strokeColor=#545B64;rounded=0;entryX=0.422;entryY=1.033;entryDx=0;entryDy=0;entryPerimeter=0;" parent="B3IIUdZC-V65bYcTOhMr-3" source="B3IIUdZC-V65bYcTOhMr-15" target="B3IIUdZC-V65bYcTOhMr-13" edge="1">
          <mxGeometry width="100" relative="1" as="geometry">
            <mxPoint x="261.2" y="300" as="sourcePoint" />
            <mxPoint x="361.20000000000005" y="300" as="targetPoint" />
            <Array as="points">
              <mxPoint x="137" y="300" />
              <mxPoint x="518" y="300" />
            </Array>
          </mxGeometry>
        </mxCell>
        <mxCell id="B3IIUdZC-V65bYcTOhMr-26" value="&lt;b&gt;Bucket&lt;/b&gt;" style="text;html=1;align=center;verticalAlign=middle;resizable=0;points=[];autosize=1;strokeColor=none;fillColor=none;" parent="B3IIUdZC-V65bYcTOhMr-3" vertex="1">
          <mxGeometry x="107.5" y="415" width="60" height="30" as="geometry" />
        </mxCell>
        <mxCell id="B3IIUdZC-V65bYcTOhMr-16" value="" style="edgeStyle=orthogonalEdgeStyle;html=1;endArrow=block;elbow=vertical;startArrow=none;endFill=1;strokeColor=#545B64;rounded=0;" parent="1" edge="1">
          <mxGeometry width="100" relative="1" as="geometry">
            <mxPoint x="140" y="348.65999999999997" as="sourcePoint" />
            <mxPoint x="240" y="348.65999999999997" as="targetPoint" />
          </mxGeometry>
        </mxCell>
      </root>
    </mxGraphModel>
  </diagram>
</mxfile>
